<svg xmlns="http://www.w3.org/2000/svg" viewBox="60 170 880 880" role="img" aria-label="MotPsy favicon">
  <rect x="60" y="170" width="880" height="880" rx="160" fill="#1368B0"/>
  <g transform="translate(0, 165)">
  
  <g fill="none" stroke="white" stroke-linecap="round" stroke-linejoin="round">
    <path d="M 126 555 L 126 322 C 126 262 152 240 191 240 C 250 240 330 343 399 343 C 500 352 688 250 792 245 C 852 243 873 286 873 340 L 873 555" stroke-width="46"/>
    <path d="M 618 364 Q 634 366 634 392 L 634 434 Q 634 484 720 484 Q 806 484 806 434 L 806 392 Q 806 366 822 364" stroke-width="44"/>
    <path d="M 720 372 L 720 556" stroke-width="44"/>
  </g>
  <circle cx="499" cy="465" r="92" fill="none" stroke="#FB8B07" stroke-width="40"/>

  </g>
</svg>