<svg viewBox="0 0 512 512" xmlns="http://www.w3.org/2000/svg">
<rect width="512" height="512" rx="72" fill="#2B2D31"/>
<g transform="translate(256,315) scale(1.855) translate(-358.1,-134.4)"><path transform="translate(426,67)" d="m0 0c0.074779 5.6376 0.1289 11.275 0.16479 16.913 0.014983 1.9135 0.035376 3.8269 0.061523 5.7402 0.27287 20.498 0.27287 20.498-3.2263 29.347-0.194 0.49758-0.194 0.49758-1.1758 3.0156-7.4541 14.652-19.653 22.313-34.715 28.094-5.0551 1.5668-9.6583 2.0141-14.949 1.957-1.1575-0.0095874-2.315-0.019175-3.5076-0.029053-0.87535-0.012327-1.7507-0.024653-2.6526-0.037354 0.0088824 0.55488 0.017765 1.1098 0.026917 1.6815 0.088489 5.7749 0.14882 11.55 0.19281 17.325 0.020116 2.1554 0.047413 4.3107 0.082031 6.4658 0.048517 3.098 0.071211 6.1952 0.088867 9.2935 0.020645 0.96367 0.04129 1.9273 0.062561 2.9202 0.0022424 6.6847 0.0022424 6.6847-2.3389 9.9206-2.417 1.5931-3.7366 1.933-6.6143 1.8936-0.75281 0.010312-1.5056 0.020625-2.2812 0.03125-3.2726-0.78358-4.2295-1.7818-6.2188-4.5312-0.56624-3.4121-0.46454-6.7841-0.39062-10.234 0.0056598-0.99316 0.01132-1.9863 0.017151-3.0096 0.022374-3.1692 0.072573-6.3372 0.12347-9.506 0.020064-2.1497 0.038315-4.2995 0.054688-6.4492 0.04408-5.2673 0.111-10.534 0.19531-15.801-0.74883 0.0072963-1.4977 0.014593-2.2692 0.02211-0.98576 0.0056749-1.9715 0.01135-2.9872 0.017197-0.48785 0.0036481-0.48785 0.0036481-2.9567 0.02211-13.724-0.30244-27.916-7.4767-37.717-16.753-10.083-11.243-13.259-21.949-13.168-36.742 0.0014149-0.87794 0.0028299-1.7559 0.0042877-2.6604 0.0055603-2.7812 0.018105-5.5623 0.030869-8.3435 0.0050201-1.8952 0.0095821-3.7904 0.013672-5.6855 0.010976-4.6257 0.028213-9.2513 0.048828-13.877 1.7335 0.13375 3.4665 0.27444 5.1992 0.41797 0.9651 0.077585 1.9302 0.15517 2.9246 0.23511 8.2078 0.99001 14.765 4.1633 20.564 10.097 5.5275 7.7683 5.7384 14.863 5.8125 24.125 0.14872 18.462 0.14872 18.462 5.2266 25.527 4.818 3.896 9.253 6.1265 15.273 7.5977 1.3334 0.3329 2.6668 0.66618 4 1-0.0055515-0.39535-0.0055515-0.39535-0.033646-2.396-0.10028-7.4595-0.17636-14.919-0.22542-22.379-0.02607-3.8351-0.061419-7.6696-0.11814-11.504-0.054414-3.7024-0.084243-7.4042-0.097189-11.107-0.0092233-1.411-0.027235-2.822-0.054264-4.2328-0.036404-1.9792-0.038393-3.959-0.038977-5.9386-0.0055515-0.56293-0.0055515-0.56293-0.033646-3.4117 0.79795-4.0224 2.4324-5.5125 5.6013-8.031 4.0986-0.65871 6.1257-0.53239 9.6833 1.6339 3.003 3.0671 2.9254 4.5464 2.8844 8.787-3.7766e-4 1.301-7.5531e-4 2.6021-0.0011444 3.9426-0.025532 1.4153-0.051611 2.8306-0.078201 4.2459-0.0093294 1.4516-0.016445 2.9032-0.021439 4.3548-0.01906 3.8145-0.068151 7.6279-0.12352 11.442-0.051214 3.8944-0.073999 7.789-0.099182 11.684-0.05357 7.6372-0.13887 15.274-0.24414 22.91 2.0736-0.4375 4.1447-0.88632 6.2148-1.3398 1.1536-0.24871 2.3073-0.49742 3.4958-0.75366 5.5035-1.5167 9.5333-3.9442 12.48-8.9155 3.237-7.5026 3.3675-14.527 3.3716-22.616 0.033455-9.4248 0.090172-16.751 5-25 8.1934-7.9833 18.19-11.469 29.438-11.375z" fill="#5491CC"/></g>
<g transform="translate(347.5,130.0) scale(0.61002) translate(-211.4,-139.1)"><path transform="translate(219,82)" d="m0 0c0.85852 0.059297 1.717 0.11859 2.6016 0.17969 13.689 1.8771 26.48 10.643 35.398 20.82 8.2104 10.856 12.175 21.803 12.188 35.375 0.012246 0.71672 0.024492 1.4334 0.037109 2.1719 0.03598 13.289-5.4466 25.647-14.225 35.453-0.59555 0.68836-1.1911 1.3767-1.8047 2.0859-7.4237 8.0397-16.757 12.951-27.195 15.914-0.90105 0.34547-1.8021 0.69094-2.7305 1.0469-13.29 3.8741-27.027 0.47265-39.105-5.4336-14.85-8.3386-24.1-20.918-28.914-37.141-3.3328-14.28-1.1422-28.752 5.75-41.66 9.1895-14.539 22.343-24.154 39.125-28.16 6.3504-1.0691 12.464-1.1071 18.875-0.65234z" fill="#FEC340"/><path transform="translate(227.62 105.44)" d="m0 0c9.0797 5.4097 16.57 13.201 19.977 23.355 2.1514 11.917 0.48 22.614-6.293 32.734-5.571 6.9899-12.93 10.68-21.309 13.473-11.767 0.68753-21.571 0.43711-31.086-7.2773-7.564-6.8076-12.572-13.616-13.293-24.012-0.46178-11.652 0.91258-19.921 8.6289-29.023 3.8445-4.0278 7.7385-7.2428 12.75-9.6875 0.71543-0.36094 1.4309-0.72187 2.168-1.0938 8.6993-2.7838 20.225-2.3031 28.457 1.5312z" fill="#2B2D31"/></g>
<path d="M129.5 156.0 L129.5 104.0 L186.3 119.1 L298.5 104.0 L298.5 156.0" fill="none" stroke="#5491CC" stroke-width="18" stroke-linecap="round" stroke-linejoin="round"/>
</svg>