<?xml version="1.0" encoding="UTF-8"?>
<svg version="1.1" viewBox="0 0 475 213" xmlns="http://www.w3.org/2000/svg">
<path transform="translate(0)" d="m0 0h475v213h-475v-213z" fill="#FEFEFE"/>
<path transform="translate(20.951 8.6851)" d="m0 0c3.2734 0.50318 6.1955 1.475 9.2988 2.6274 0.70254 0.25781 1.4051 0.51562 2.1289 0.78125 8.4881 3.1527 16.893 6.5341 25.311 9.8674 7.723 3.0509 15.473 5.9451 23.322 8.6521 6.9041 2.3819 13.738 4.962 20.585 7.5 2.3726 0.87558 4.7484 1.742 7.1255 2.6055 8.3144 3.0268 16.569 6.165 24.777 9.4688 0.84764 0.33757 1.6953 0.67515 2.5686 1.0229 3.4068 1.3581 6.7914 2.7272 10.142 4.2192 11.972 5.0909 24.82 1.107 37.062-1.3281 5.8673-1.1525 11.757-2.1131 17.664-3.0391 36.183-5.6916 36.183-5.6916 51.312-8.625 8.0298-1.5516 16.11-2.7377 24.196-3.9573 5.8757-0.89278 11.72-1.8432 17.554-2.9802 6.6852-1.298 13.392-2.3567 20.125-3.375 21.059-3.1885 42.05-6.7858 63.034-10.426 13.048-2.2632 26.098-4.3577 39.214-6.1995 5.711-0.82553 11.087-1.861 16.627-3.5 3.32-0.63616 6.6556-1.1358 10-1.625 0.86367-0.13406 1.7273-0.26812 2.6172-0.40625 12.918-1.924 12.918-1.924 17.258 0.90625 3.6399 3.6399 3.254 6.1035 3.2654 11.165 0.0014856 0.36661 0.0014856 0.36661 0.0090034 2.2219 0.0087075 2.4696 0.010197 4.9392 0.011688 7.4089 0.0046267 1.7656 0.0096512 3.5311 0.015045 5.2967 0.01314 4.8058 0.019572 9.6117 0.024011 14.418 0.0029282 3.0008 0.0070326 6.0016 0.011504 9.0025 0.013679 9.3839 0.023344 18.768 0.027202 28.152 0.0044815 10.841 0.022032 21.683 0.051001 32.524 0.0216 8.3737 0.031703 16.747 0.033041 25.121 0.0010492 5.0041 0.0069824 10.008 0.02482 15.012 0.016452 4.7073 0.01865 9.4143 0.009861 14.122-7.7192e-4 1.7282 0.0035927 3.4564 0.013458 5.1845 0.012676 2.3587 0.0068669 4.7167-0.003582 7.0754 0.0040282 0.34222 0.0040282 0.34222 0.024413 2.0741-0.044263 4.2702-0.79383 6.9437-3.3919 10.347-2.2598 1.1299-3.7973 1.298-6.3125 1.4375l-2.3008 0.18359c-3.637-0.94646-5.487-3.5308-7.3867-6.6211-0.63086-3.3152-0.63086-3.3152-0.63924-6.9856-0.0041778-0.33946-0.0041778-0.33946-0.02532-2.0573-0.021849-2.2621-0.0083496-4.5226 0.0051329-6.7848-0.0084566-1.6265-0.019102-3.253-0.031769-4.8794-0.02813-4.4067-0.025678-8.8129-0.017706-13.22 0.0031262-4.6085-0.021913-9.2169-0.043955-13.825-0.037446-8.7228-0.049588-17.445-0.052624-26.168-0.0046902-9.9323-0.037612-19.864-0.072898-29.797-0.07194-20.428-0.10845-40.855-0.12162-61.283-4.9903 0.80542-9.9804 1.6119-14.97 2.4193-1.6903 0.27335-3.3807 0.54643-5.071 0.81921-10.747 1.7345-21.484 3.5154-32.209 5.3865-8.7408 1.5219-17.486 2.9922-26.25 4.375-10.124 1.5981-20.225 3.3135-30.323 5.0698-8.9897 1.5612-17.987 3.0677-26.99 4.5552-7.5147 1.2428-15.021 2.4962-22.5 3.9375-6.4591 1.2445-12.94 2.2914-19.438 3.3125-8.7296 1.3728-17.431 2.8538-26.125 4.4375-14.252 2.5917-28.547 4.901-42.851 7.1887-9.301 1.4927-18.572 3.0667-27.82 4.8635-12.816 2.3571-21.337 1.8868-33.517-2.9272-1.1916-0.45601-2.3832-0.91201-3.6108-1.3818-7.2089-2.7757-14.368-5.6671-21.489-8.6626-4.4352-1.8557-8.9155-3.5193-13.463-5.0806-9.0266-3.1-17.902-6.5817-26.793-10.046-8.8961-3.4658-17.804-6.8857-26.786-10.123-3.2271-1.1683-6.402-2.3845-9.5454-3.7639-2.4856-1.0546-4.6493-1.78-7.25-2.3789 0.0055308 0.8406 0.011062 1.6812 0.01676 2.5473 0.13247 20.447 0.23178 40.895 0.29411 61.342 0.030947 9.8884 0.073143 19.776 0.14176 29.665 0.059777 8.6179 0.098506 17.236 0.11189 25.854 0.0078268 4.5639 0.026238 9.1273 0.069849 13.691 0.040714 4.2954 0.053291 8.5899 0.044266 12.885 0.0016512 1.5766 0.013594 3.1533 0.036587 4.7298 0.029873 2.1538 0.022677 4.3044 0.0062943 6.4582 0.0055308 1.2048 0.011062 2.4096 0.01676 3.6509-1.0503 4.5187-2.9536 5.5861-6.7383 8.1765-3.1125 0.95684-4.6328 0.53448-8 0-3.4516-2.6422-4.8397-4.1227-5.6292-8.4436-0.027349-1.3442-0.027437-2.6891-0.0057125-4.0334-0.0078-0.74395-0.0156-1.4879-0.023636-2.2544-0.019916-2.4885-0.0041584-4.9754 0.011582-7.4639-0.0067763-1.7857-0.01568-3.5714-0.02655-5.3571-0.022798-4.8472-0.013955-9.6938 0.0018954-14.541 0.012656-5.0719 9.1961e-4 -10.144-0.0069308-15.216-0.0090973-8.5175 0.0028935-17.035 0.026703-25.552 0.027211-9.8482 0.018397-19.696-0.009132-29.544-0.022688-8.4545-0.025893-16.909-0.012807-25.363 0.0077964-5.05 0.008831-10.1-0.0076824-15.15-0.014441-4.7477-0.0044307-9.4947 0.024471-14.242 0.006613-1.7427 0.0047094-3.4854-0.0063133-5.2281-0.013659-2.3788 0.0034617-4.7554 0.0284-7.134-0.011154-0.69018-0.022307-1.3804-0.033799-2.0914 0.076292-3.7497 0.62872-5.3345 2.9672-8.3244 3.0163-2.3015 4.8853-2.6321 8.6527-2.3762z" fill="#67C9FE"/>
<path transform="translate(219,82)" d="m0 0c0.85852 0.059297 1.717 0.11859 2.6016 0.17969 13.689 1.8771 26.48 10.643 35.398 20.82 8.2104 10.856 12.175 21.803 12.188 35.375 0.012246 0.71672 0.024492 1.4334 0.037109 2.1719 0.03598 13.289-5.4466 25.647-14.225 35.453-0.59555 0.68836-1.1911 1.3767-1.8047 2.0859-7.4237 8.0397-16.757 12.951-27.195 15.914-0.90105 0.34547-1.8021 0.69094-2.7305 1.0469-13.29 3.8741-27.027 0.47265-39.105-5.4336-14.85-8.3386-24.1-20.918-28.914-37.141-3.3328-14.28-1.1422-28.752 5.75-41.66 9.1895-14.539 22.343-24.154 39.125-28.16 6.3504-1.0691 12.464-1.1071 18.875-0.65234z" fill="#FEC340"/>
<path transform="translate(426,67)" d="m0 0c0.074779 5.6376 0.1289 11.275 0.16479 16.913 0.014983 1.9135 0.035376 3.8269 0.061523 5.7402 0.27287 20.498 0.27287 20.498-3.2263 29.347-0.194 0.49758-0.194 0.49758-1.1758 3.0156-7.4541 14.652-19.653 22.313-34.715 28.094-5.0551 1.5668-9.6583 2.0141-14.949 1.957-1.1575-0.0095874-2.315-0.019175-3.5076-0.029053-0.87535-0.012327-1.7507-0.024653-2.6526-0.037354 0.0088824 0.55488 0.017765 1.1098 0.026917 1.6815 0.088489 5.7749 0.14882 11.55 0.19281 17.325 0.020116 2.1554 0.047413 4.3107 0.082031 6.4658 0.048517 3.098 0.071211 6.1952 0.088867 9.2935 0.020645 0.96367 0.04129 1.9273 0.062561 2.9202 0.0022424 6.6847 0.0022424 6.6847-2.3389 9.9206-2.417 1.5931-3.7366 1.933-6.6143 1.8936-0.75281 0.010312-1.5056 0.020625-2.2812 0.03125-3.2726-0.78358-4.2295-1.7818-6.2188-4.5312-0.56624-3.4121-0.46454-6.7841-0.39062-10.234 0.0056598-0.99316 0.01132-1.9863 0.017151-3.0096 0.022374-3.1692 0.072573-6.3372 0.12347-9.506 0.020064-2.1497 0.038315-4.2995 0.054688-6.4492 0.04408-5.2673 0.111-10.534 0.19531-15.801-0.74883 0.0072963-1.4977 0.014593-2.2692 0.02211-0.98576 0.0056749-1.9715 0.01135-2.9872 0.017197-0.48785 0.0036481-0.48785 0.0036481-2.9567 0.02211-13.724-0.30244-27.916-7.4767-37.717-16.753-10.083-11.243-13.259-21.949-13.168-36.742 0.0014149-0.87794 0.0028299-1.7559 0.0042877-2.6604 0.0055603-2.7812 0.018105-5.5623 0.030869-8.3435 0.0050201-1.8952 0.0095821-3.7904 0.013672-5.6855 0.010976-4.6257 0.028213-9.2513 0.048828-13.877 1.7335 0.13375 3.4665 0.27444 5.1992 0.41797 0.9651 0.077585 1.9302 0.15517 2.9246 0.23511 8.2078 0.99001 14.765 4.1633 20.564 10.097 5.5275 7.7683 5.7384 14.863 5.8125 24.125 0.14872 18.462 0.14872 18.462 5.2266 25.527 4.818 3.896 9.253 6.1265 15.273 7.5977 1.3334 0.3329 2.6668 0.66618 4 1-0.0055515-0.39535-0.0055515-0.39535-0.033646-2.396-0.10028-7.4595-0.17636-14.919-0.22542-22.379-0.02607-3.8351-0.061419-7.6696-0.11814-11.504-0.054414-3.7024-0.084243-7.4042-0.097189-11.107-0.0092233-1.411-0.027235-2.822-0.054264-4.2328-0.036404-1.9792-0.038393-3.959-0.038977-5.9386-0.0055515-0.56293-0.0055515-0.56293-0.033646-3.4117 0.79795-4.0224 2.4324-5.5125 5.6013-8.031 4.0986-0.65871 6.1257-0.53239 9.6833 1.6339 3.003 3.0671 2.9254 4.5464 2.8844 8.787-3.7766e-4 1.301-7.5531e-4 2.6021-0.0011444 3.9426-0.025532 1.4153-0.051611 2.8306-0.078201 4.2459-0.0093294 1.4516-0.016445 2.9032-0.021439 4.3548-0.01906 3.8145-0.068151 7.6279-0.12352 11.442-0.051214 3.8944-0.073999 7.789-0.099182 11.684-0.05357 7.6372-0.13887 15.274-0.24414 22.91 2.0736-0.4375 4.1447-0.88632 6.2148-1.3398 1.1536-0.24871 2.3073-0.49742 3.4958-0.75366 5.5035-1.5167 9.5333-3.9442 12.48-8.9155 3.237-7.5026 3.3675-14.527 3.3716-22.616 0.033455-9.4248 0.090172-16.751 5-25 8.1934-7.9833 18.19-11.469 29.438-11.375z" fill="#66C9FE"/>
<path transform="translate(227.62 105.44)" d="m0 0c9.0797 5.4097 16.57 13.201 19.977 23.355 2.1514 11.917 0.48 22.614-6.293 32.734-5.571 6.9899-12.93 10.68-21.309 13.473-11.767 0.68753-21.571 0.43711-31.086-7.2773-7.564-6.8076-12.572-13.616-13.293-24.012-0.46178-11.652 0.91258-19.921 8.6289-29.023 3.8445-4.0278 7.7385-7.2428 12.75-9.6875 0.71543-0.36094 1.4309-0.72187 2.168-1.0938 8.6993-2.7838 20.225-2.3031 28.457 1.5312z" fill="#FEFEFD"/>
<path transform="translate(13,10)" d="m0 0c0.66 0.33 1.32 0.66 2 1-0.66 1.98-1.32 3.96-2 6h-2v179h-1c-0.070033-23.661-0.12296-47.321-0.15544-70.982-0.015479-10.986-0.036589-21.971-0.070882-32.957-0.02987-9.5734-0.049249-19.147-0.055947-28.72-0.0039163-5.0706-0.013142-10.141-0.034925-15.212-0.020328-4.7704-0.026651-9.5406-0.022133-14.311-8.2687e-4 -1.7528-0.0068147-3.5056-0.018293-5.2583-0.014886-2.3898-0.011352-4.7789-0.0031471-7.1687-0.0087385-0.6965-0.017477-1.393-0.02648-2.1106 0.03764-4.0452 0.55587-6.3322 3.3872-9.2798z" fill="#7BCCFC"/>
</svg>
