<svg xmlns="http://www.w3.org/2000/svg" viewBox="0 0 1000 810" role="img" aria-label="MotPsy logo">
  <g fill="none" stroke="#50BBF6" stroke-linecap="round" stroke-linejoin="round">
    <path d="M 126 555 L 126 322 C 126 262 152 240 191 240 C 250 240 330 343 399 343 C 500 352 688 250 792 245 C 852 243 873 286 873 340 L 873 555" stroke-width="32"/>
    <path d="M 618 364 Q 634 366 634 392 L 634 434 Q 634 484 720 484 Q 806 484 806 434 L 806 392 Q 806 366 822 364" stroke-width="30"/>
    <path d="M 720 372 L 720 556" stroke-width="30"/>
  </g>
  <circle cx="499" cy="465" r="92" fill="none" stroke="#FB8B07" stroke-width="28"/>
  <path d="M 121.79 653.68 Q 124.42 653.68 127.32 655.09 Q 130.22 656.49 131.72 658.74 L 177.21 728.76 L 167.85 728.38 L 214.47 658.74 Q 218.02 653.68 223.64 653.68 Q 228.13 653.68 231.69 656.87 Q 235.25 660.05 235.25 665.11 L 235.25 773.50 Q 235.25 778.37 232.06 781.65 Q 228.88 784.92 223.64 784.92 Q 218.40 784.92 215.12 781.65 Q 211.84 778.37 211.84 773.50 L 211.84 685.32 L 219.15 687.01 L 180.95 745.23 Q 179.27 747.29 176.74 748.79 Q 174.21 750.29 171.59 750.10 Q 169.16 750.29 166.63 748.79 Q 164.11 747.29 162.42 745.23 L 126.66 688.69 L 131.53 678.77 L 131.53 773.50 Q 131.53 778.37 128.53 781.65 Q 125.54 784.92 120.67 784.92 Q 115.99 784.92 113.00 781.65 Q 110.00 778.37 110.00 773.50 L 110.00 665.11 Q 110.00 660.42 113.46 657.05 Q 116.93 653.68 121.79 653.68 Z M 393.44 719.40 Q 393.44 733.44 388.76 745.61 Q 384.08 757.78 375.56 767.04 Q 367.05 776.31 355.34 781.55 Q 343.64 786.79 329.79 786.79 Q 315.94 786.79 304.33 781.55 Q 292.72 776.31 284.20 767.04 Q 275.68 757.78 271.00 745.61 Q 266.32 733.44 266.32 719.40 Q 266.32 705.36 271.00 693.19 Q 275.68 681.02 284.20 671.75 Q 292.72 662.48 304.33 657.24 Q 315.94 652.00 329.79 652.00 Q 343.64 652.00 355.34 657.24 Q 367.05 662.48 375.56 671.75 Q 384.08 681.02 388.76 693.19 Q 393.44 705.36 393.44 719.40 Z M 369.11 719.40 Q 369.11 706.85 364.05 696.65 Q 359.00 686.45 350.20 680.46 Q 341.40 674.47 329.79 674.47 Q 318.18 674.47 309.38 680.46 Q 300.58 686.45 295.62 696.56 Q 290.66 706.67 290.66 719.40 Q 290.66 731.94 295.62 742.14 Q 300.58 752.35 309.38 758.34 Q 318.18 764.33 329.79 764.33 Q 341.40 764.33 350.20 758.34 Q 359.00 752.35 364.05 742.14 Q 369.11 731.94 369.11 719.40 Z M 468.89 784.92 Q 463.65 784.92 460.28 781.65 Q 456.91 778.37 456.91 773.50 L 456.91 664.92 L 481.25 664.92 L 481.25 773.50 Q 481.25 778.37 477.78 781.65 Q 474.32 784.92 468.89 784.92 Z M 427.52 675.40 Q 422.65 675.40 419.37 672.41 Q 416.10 669.41 416.10 664.54 Q 416.10 659.68 419.37 656.77 Q 422.65 653.87 427.52 653.87 L 510.64 653.87 Q 515.51 653.87 518.78 656.87 Q 522.06 659.86 522.06 664.73 Q 522.06 669.60 518.78 672.50 Q 515.51 675.40 510.64 675.40 L 427.52 675.40 Z M 605.00 653.87 Q 614.73 653.87 623.25 659.49 Q 631.77 665.11 637.01 674.65 Q 642.25 684.20 642.25 696.00 Q 642.25 707.60 637.01 717.15 Q 631.77 726.70 623.25 732.41 Q 614.73 738.12 605.00 738.12 L 570.55 738.12 L 572.42 734.75 L 572.42 773.50 Q 572.42 778.37 569.42 781.65 Q 566.43 784.92 561.56 784.92 Q 556.88 784.92 553.89 781.65 Q 550.89 778.37 550.89 773.50 L 550.89 665.29 Q 550.89 660.42 554.17 657.15 Q 557.44 653.87 562.31 653.87 L 605.00 653.87 Z M 605.00 716.78 Q 608.55 716.78 611.92 713.78 Q 615.29 710.79 617.54 706.01 Q 619.79 701.24 619.79 696.00 Q 619.79 690.57 617.54 685.89 Q 615.29 681.21 611.92 678.30 Q 608.55 675.40 605.00 675.40 L 570.17 675.40 L 572.42 672.03 L 572.42 719.77 L 570.36 716.78 L 605.00 716.78 Z M 715.64 786.79 Q 702.53 786.79 692.05 783.52 Q 681.57 780.24 672.02 772.00 Q 669.58 769.95 668.27 767.32 Q 666.96 764.70 666.96 762.08 Q 666.96 757.78 670.05 754.50 Q 673.14 751.22 677.82 751.22 Q 681.38 751.22 684.19 753.47 Q 691.30 759.27 698.32 762.27 Q 705.34 765.26 715.64 765.26 Q 722.57 765.26 728.37 763.11 Q 734.17 760.96 737.73 757.31 Q 741.29 753.66 741.29 748.98 Q 741.29 743.36 737.92 739.43 Q 734.55 735.50 727.62 732.78 Q 720.69 730.07 710.02 728.57 Q 699.91 727.07 692.24 723.98 Q 684.56 720.89 679.41 716.12 Q 674.26 711.35 671.64 704.89 Q 669.02 698.43 669.02 690.38 Q 669.02 678.21 675.29 669.60 Q 681.57 660.99 692.24 656.49 Q 702.91 652.00 715.83 652.00 Q 728.00 652.00 738.39 655.65 Q 748.78 659.30 755.33 664.92 Q 760.76 669.22 760.76 674.84 Q 760.76 678.96 757.58 682.33 Q 754.39 685.70 750.09 685.70 Q 747.28 685.70 745.03 684.01 Q 742.04 681.39 736.98 679.05 Q 731.93 676.71 726.31 675.12 Q 720.69 673.53 715.83 673.53 Q 707.78 673.53 702.25 675.59 Q 696.73 677.65 693.92 681.21 Q 691.11 684.76 691.11 689.44 Q 691.11 695.06 694.39 698.71 Q 697.67 702.36 703.84 704.51 Q 710.02 706.67 718.63 708.35 Q 729.87 710.41 738.39 713.22 Q 746.90 716.03 752.52 720.43 Q 758.14 724.83 760.95 731.47 Q 763.75 738.12 763.75 747.67 Q 763.75 759.84 757.01 768.63 Q 750.27 777.43 739.32 782.11 Q 728.37 786.79 715.64 786.79 Z M 877.77 653.31 Q 882.07 653.31 885.54 656.59 Q 889.00 659.86 889.00 664.92 Q 889.00 666.60 888.53 668.38 Q 888.06 670.16 886.94 671.84 L 844.44 732.69 L 847.81 719.77 L 847.81 773.50 Q 847.81 778.37 844.54 781.65 Q 841.26 784.92 836.95 784.92 Q 832.27 784.92 829.00 781.65 Q 825.72 778.37 825.72 773.50 L 825.72 721.27 L 827.22 727.26 L 786.78 673.53 Q 784.91 671.10 784.16 668.85 Q 783.41 666.60 783.41 664.73 Q 783.41 659.68 787.34 656.49 Q 791.27 653.31 795.39 653.31 Q 800.63 653.31 804.57 658.55 L 840.51 708.16 L 835.27 707.42 L 868.41 658.93 Q 872.34 653.31 877.77 653.31 Z" fill="#1368B0"/>
</svg>